<?xml version="1.0" encoding="utf-8"?>
<!-- Generator: Adobe Illustrator 15.0.1, SVG Export Plug-In . SVG Version: 6.00 Build 0)  -->
<!DOCTYPE svg PUBLIC "-//W3C//DTD SVG 1.1//EN" "http://www.w3.org/Graphics/SVG/1.1/DTD/svg11.dtd" [
	<!ENTITY ns_extend "http://ns.adobe.com/Extensibility/1.0/">
	<!ENTITY ns_ai "http://ns.adobe.com/AdobeIllustrator/10.0/">
	<!ENTITY ns_graphs "http://ns.adobe.com/Graphs/1.0/">
	<!ENTITY ns_vars "http://ns.adobe.com/Variables/1.0/">
	<!ENTITY ns_imrep "http://ns.adobe.com/ImageReplacement/1.0/">
	<!ENTITY ns_sfw "http://ns.adobe.com/SaveForWeb/1.0/">
	<!ENTITY ns_custom "http://ns.adobe.com/GenericCustomNamespace/1.0/">
	<!ENTITY ns_adobe_xpath "http://ns.adobe.com/XPath/1.0/">
]>
<svg version="1.1" id="Ebene_1" xmlns:x="&ns_extend;" xmlns:i="&ns_ai;" xmlns:graph="&ns_graphs;"
	 xmlns="http://www.w3.org/2000/svg" xmlns:xlink="http://www.w3.org/1999/xlink" x="0px" y="0px" width="287px" height="65px"
	 viewBox="0 0 287 65" enable-background="new 0 0 287 65" xml:space="preserve">
<metadata>
	<sfw  xmlns="&ns_sfw;">
		<slices></slices>
		<sliceSourceBounds  y="388" x="154" width="287" height="65" bottomLeftOrigin="true"></sliceSourceBounds>
	</sfw>
</metadata>
<path fill="#002A3A" d="M69.648,26.105v3.285h6.791v3.31h-6.791v6.815h-3.703V22.845h10.812v3.261L69.648,26.105L69.648,26.105z"/>
<path fill="#002A3A" d="M84.067,27.552c3.678,0,6.203,2.231,6.203,6.179c0,3.949-2.525,6.08-6.203,6.08
	c-3.679,0-6.179-2.133-6.179-6.08C77.888,29.784,80.389,27.552,84.067,27.552z M84.067,37.089c1.644,0,2.573-1.274,2.573-3.407
	c0-2.183-0.906-3.433-2.573-3.433c-1.668,0-2.549,1.274-2.549,3.433C81.519,35.839,82.425,37.089,84.067,37.089z"/>
<path fill="#002A3A" d="M103.732,39.518h-3.578v-5.886c0-1.789-0.074-3.039-1.84-3.039c-1.496,0-2.132,1.176-2.132,2.771v6.154
	h-3.58V27.846h3.53v1.446c0.563-0.955,1.838-1.74,3.505-1.74c1.351,0,2.38,0.368,3.065,1.128c0.735,0.833,1.029,1.643,1.029,4.218
	L103.732,39.518L103.732,39.518z"/>
<path fill="#002A3A" d="M114.817,28.9v-6.056h3.58v16.672h-3.58v-1.078c-0.564,0.637-1.814,1.373-3.432,1.373
	c-3.31,0-5.418-2.453-5.418-6.129c0-3.556,2.182-6.131,5.442-6.131C113.103,27.552,114.228,28.189,114.817,28.9z M112.244,30.273
	c-1.668,0-2.648,1.323-2.648,3.409c0,2.133,0.906,3.432,2.648,3.432c1.592,0,2.671-1.396,2.671-3.432
	C114.915,31.646,113.836,30.273,112.244,30.273z"/>
<path fill="#002A3A" d="M126.908,27.552c3.677,0,6.202,2.231,6.202,6.179c0,3.949-2.525,6.08-6.202,6.08
	c-3.678,0-6.18-2.133-6.18-6.08C120.728,29.784,123.23,27.552,126.908,27.552z M126.908,37.089c1.643,0,2.573-1.274,2.573-3.407
	c0-2.183-0.906-3.433-2.573-3.433s-2.551,1.274-2.551,3.433C124.357,35.839,125.266,37.089,126.908,37.089z"/>
<path fill="#002A3A" d="M152.95,39.518h-3.58v-5.886c0-1.789-0.075-3.039-1.838-3.039c-1.496,0-2.134,1.176-2.134,2.771v6.154
	h-3.581V27.846h3.53v1.446c0.564-0.955,1.838-1.74,3.506-1.74c1.35,0,2.379,0.368,3.065,1.128c0.733,0.833,1.03,1.643,1.03,4.218
	L152.95,39.518L152.95,39.518z"/>
<path fill="#002A3A" d="M165.923,36.6c0,0.734,0.099,0.979,0.612,0.979h0.171v2.06c-0.538,0.1-1.079,0.147-1.667,0.147
	c-1.029,0-1.984-0.196-2.229-1.056h-0.025c-0.539,0.59-1.396,1.08-3.286,1.08c-2.573,0-4.216-1.324-4.216-3.752
	c0-2.23,1.691-3.113,4.168-3.506l2.426-0.393c0.639-0.099,0.736-0.172,0.736-0.539v-0.196c0-0.883-0.49-1.373-1.717-1.373
	c-1.25,0-1.938,0.515-1.938,1.692l-3.311-0.025c-0.049-2.673,2.108-4.118,5.395-4.118c2.991,0,4.88,0.931,4.88,3.578V36.6z
	 M162.588,34.221c-0.271,0.098-0.49,0.221-1.74,0.467c-1.15,0.221-2.01,0.416-2.01,1.422c0,0.955,0.709,1.373,1.739,1.373
	c1.178,0,2.011-0.541,2.011-1.766V34.221z"/>
<path fill="#002A3A" d="M178.945,27.846v2.55l-5.493,6.154h5.737v2.968h-10.519v-2.525l5.614-6.179h-5.37v-2.967H178.945z"/>
<path fill="#002A3A" d="M185.469,26.351h-3.604v-3.506h3.604V26.351z M185.469,39.518h-3.604V27.846h3.604V39.518z"/>
<path fill="#002A3A" d="M193.977,27.552c3.68,0,6.205,2.231,6.205,6.179c0,3.949-2.525,6.08-6.205,6.08
	c-3.677,0-6.177-2.133-6.177-6.08C187.8,29.784,190.3,27.552,193.977,27.552z M193.977,37.089c1.646,0,2.576-1.274,2.576-3.407
	c0-2.183-0.908-3.433-2.576-3.433c-1.666,0-2.549,1.274-2.549,3.433C191.428,35.839,192.334,37.089,193.977,37.089z"/>
<path fill="#002A3A" d="M213.643,39.518h-3.576v-5.886c0-1.789-0.074-3.039-1.842-3.039c-1.496,0-2.131,1.176-2.131,2.771v6.154
	h-3.58V27.846h3.53v1.446c0.562-0.955,1.838-1.74,3.505-1.74c1.352,0,2.381,0.368,3.062,1.128c0.738,0.833,1.031,1.643,1.031,4.218
	V39.518L213.643,39.518z"/>
<path fill="#002A3A" d="M226.613,36.6c0,0.734,0.101,0.979,0.617,0.979h0.17v2.06c-0.541,0.1-1.078,0.147-1.666,0.147
	c-1.029,0-1.987-0.196-2.233-1.056h-0.024c-0.537,0.59-1.396,1.08-3.283,1.08c-2.572,0-4.219-1.324-4.219-3.752
	c0-2.23,1.692-3.113,4.168-3.506l2.43-0.393c0.638-0.099,0.734-0.172,0.734-0.539v-0.196c0-0.883-0.488-1.373-1.715-1.373
	c-1.254,0-1.938,0.515-1.938,1.692l-3.311-0.025c-0.05-2.673,2.108-4.118,5.395-4.118c2.99,0,4.875,0.931,4.875,3.578V36.6
	L226.613,36.6z M223.279,34.221c-0.268,0.098-0.487,0.221-1.737,0.467c-1.153,0.221-2.013,0.416-2.013,1.422
	c0,0.955,0.713,1.373,1.742,1.373c1.176,0,2.008-0.541,2.008-1.766V34.221z"/>
<path fill="#002A3A" d="M233.557,39.518h-3.58V22.845h3.58V39.518z"/>
<path fill="#002A3A" d="M247.534,37.04c-0.688,0.981-2.38,2.771-5.589,2.771c-3.436,0-6.061-2.254-6.061-6.179
	c0-3.653,2.504-6.08,5.984-6.08c3.848,0,5.811,2.771,5.811,6.326c0,0.244,0,0.515-0.025,0.735h-8.311
	c0.121,1.273,1.055,2.378,2.817,2.378c1.571,0,2.504-0.933,2.896-1.618L247.534,37.04z M239.346,32.309h4.879
	c-0.074-1.349-0.933-2.28-2.379-2.28C240.449,30.028,239.395,31.082,239.346,32.309z"/>
<path fill="#002A3A" d="M73.178,56.243c-0.856-0.785-2.011-1.274-3.161-1.274c-0.811,0-1.521,0.27-1.521,0.857
	c0,0.611,0.539,0.783,1.741,1.029l1.838,0.393c1.889,0.393,3.605,1.152,3.605,3.383c0,2.723-2.38,4.021-5.15,4.021
	c-2.672,0-4.927-1.178-5.981-2.623l2.255-1.814c0.712,0.98,2.108,1.79,3.727,1.79c1.201,0,1.814-0.394,1.814-1.03
	c0-0.662-0.711-0.783-1.494-0.931l-1.84-0.368c-1.178-0.221-2.182-0.613-2.895-1.227c-0.636-0.539-1.004-1.299-1.004-2.279
	c0-2.771,2.671-3.775,4.976-3.775c2.184,0,3.924,0.81,5.101,1.938L73.178,56.243z"/>
<path fill="#002A3A" d="M88.308,52.688l-3.824,11.672h-4.266l-3.775-11.672h3.751l1.594,5.86c0.344,1.226,0.638,2.599,0.638,2.599
	h0.023c0,0,0.271-1.373,0.612-2.672l1.546-5.787H88.308z"/>
<path fill="#002A3A" d="M93.804,51.191h-3.605v-3.506h3.605V51.191z M93.804,64.357h-3.605v-11.67h3.605V64.357z"/>
<path fill="#002A3A" d="M106.677,52.688v2.551l-5.493,6.154h5.738v2.967H96.403v-2.525l5.614-6.179h-5.368v-2.968H106.677z"/>
<path fill="#002A3A" d="M119.086,52.688v2.551l-5.492,6.154h5.736v2.967h-10.517v-2.525l5.613-6.179h-5.369v-2.968H119.086z"/>
<path fill="#002A3A" d="M132.721,61.882c-0.687,0.981-2.379,2.771-5.59,2.771c-3.433,0-6.058-2.256-6.058-6.178
	c0-3.654,2.502-6.08,5.984-6.08c3.848,0,5.81,2.771,5.81,6.325c0,0.244,0,0.515-0.024,0.735h-8.311
	c0.121,1.273,1.054,2.378,2.817,2.378c1.571,0,2.502-0.933,2.895-1.618L132.721,61.882z M124.532,57.15h4.878
	c-0.073-1.35-0.932-2.28-2.378-2.28C125.635,54.87,124.58,55.924,124.532,57.15z"/>
<path fill="#002A3A" d="M138.802,52.688v1.596c0.32-0.883,1.644-1.864,3.287-1.864c0.146,0,0.27,0,0.417,0.024v3.433
	c-0.394-0.099-0.834-0.146-1.154-0.146c-1.371,0-2.059,0.66-2.329,1.643c-0.121,0.439-0.171,0.98-0.171,1.568v5.418h-3.58V52.688
	H138.802z"/>
<path fill="#002A3A" d="M149.566,52.395c3.679,0,6.203,2.23,6.203,6.179s-2.524,6.079-6.203,6.079c-3.678,0-6.178-2.133-6.178-6.079
	C143.388,54.626,145.891,52.395,149.566,52.395z M149.566,61.932c1.645,0,2.574-1.274,2.574-3.408c0-2.183-0.906-3.433-2.574-3.433
	c-1.666,0-2.549,1.274-2.549,3.433C147.02,60.682,147.926,61.932,149.566,61.932z"/>
<path fill="#04293C" d="M54.64,4.839H37.425c0.025,0.198,0.062,0.394,0.062,0.599c0,0.204-0.037,0.399-0.062,0.598H54.64
	c-0.024-0.198-0.062-0.394-0.062-0.598C54.577,5.232,54.615,5.037,54.64,4.839z"/>
<path fill="#04293C" d="M5.437,54.578c0.205,0,0.401,0.036,0.599,0.061V37.426c-0.197,0.023-0.394,0.061-0.599,0.061
	c-0.204,0-0.398-0.036-0.597-0.061v17.213C5.038,54.614,5.232,54.578,5.437,54.578z"/>
<path fill="#04293C" d="M33.099,27.552V10.363c-0.199,0.022-0.394,0.06-0.597,0.06c-0.206,0-0.401-0.037-0.6-0.06v17.188
	c-0.904,0.108-1.736,0.458-2.424,0.985c-0.105,0.08-0.209,0.164-0.305,0.252c-0.068,0.061-0.134,0.122-0.197,0.186
	c-0.771,0.771-1.288,1.79-1.424,2.928H10.363c0.023,0.198,0.059,0.394,0.059,0.598c0,0.205-0.035,0.4-0.059,0.6h17.189
	c0.283,2.381,2.246,4.246,4.672,4.379c0.092,0.006,0.184,0.008,0.277,0.008c0.012,0,0.022,0,0.037,0
	c0.155-0.002,0.311-0.01,0.466-0.025c0.002,0,0.004,0,0.007,0c1.073-0.109,2.046-0.561,2.809-1.24
	c0.011-0.01,0.021-0.019,0.032-0.029c0.029-0.024,0.057-0.053,0.084-0.078c0.029-0.028,0.061-0.057,0.089-0.086
	c0.013-0.012,0.021-0.022,0.034-0.034c0.044-0.046,0.089-0.093,0.131-0.14c0.009-0.009,0.016-0.018,0.023-0.024
	c0.791-0.884,1.273-2.049,1.273-3.327C37.487,29.949,35.571,27.848,33.099,27.552z"/>
<path fill="#5298BD" d="M5.437,27.515c-2.752,0-4.985,2.232-4.985,4.985c0,2.754,2.233,4.986,4.985,4.986
	c2.754,0,4.985-2.232,4.985-4.986C10.422,29.747,8.19,27.515,5.437,27.515L5.437,27.515z"/>
<path fill="#5298BD" d="M59.563,0.451c-2.753,0-4.986,2.232-4.986,4.986c0,2.753,2.233,4.985,4.986,4.985
	c2.756,0,4.985-2.232,4.985-4.985C64.549,2.684,62.319,0.451,59.563,0.451L59.563,0.451z"/>
<path fill="#C95B40" d="M32.502,0.451c-2.755,0-4.986,2.231-4.986,4.986c0,2.753,2.231,4.985,4.986,4.985
	c2.752,0,4.985-2.232,4.985-4.985C37.487,2.683,35.254,0.451,32.502,0.451L32.502,0.451z"/>
<path fill="#C95B40" d="M5.437,54.578c-2.752,0-4.985,2.232-4.985,4.984c0,2.754,2.233,4.986,4.985,4.986
	c2.754,0,4.985-2.232,4.985-4.986C10.422,56.811,8.19,54.578,5.437,54.578L5.437,54.578z"/>
<rect id="_x3C_Slice_x3E__2_" fill="none" width="287" height="65"/>
</svg>
